<svg xmlns="http://www.w3.org/2000/svg" xmlns:xlink="http://www.w3.org/1999/xlink" viewBox="0 0 43.45 47.4"><defs><style>.cls-1{fill:url(#Безымянный_градиент_3);}.cls-2{fill:url(#Безымянный_градиент_3-2);}</style><linearGradient id="Безымянный_градиент_3" y1="23.7" x2="43.45" y2="23.7" gradientUnits="userSpaceOnUse"><stop offset="0" stop-color="#00080b"/><stop offset="0.49" stop-color="#0c191c"/><stop offset="1" stop-color="#162629"/></linearGradient><linearGradient id="Безымянный_градиент_3-2" x1="18.1" y1="14.34" x2="31.32" y2="14.34" xlink:href="#Безымянный_градиент_3"/></defs><title>meРесурс 2</title><g id="Слой_2" data-name="Слой 2"><g id="Слой_1-2" data-name="Слой 1"><path class="cls-1" d="M43.16,19.57c-.18-1.32-.4-2.53-.58-3.64s-.33-2.12-.42-3S42,11.22,42,10.57,42,9.4,42,9a5.16,5.16,0,0,0,0-.56s-.09.18-.23.51a8,8,0,0,0-.45,1.51,20.82,20.82,0,0,0-.32,2.42c-.07.94-.09,2-.07,3.15a40.17,40.17,0,0,1-.2,7.53,14.68,14.68,0,0,1-.44,1.94,13.65,13.65,0,0,1-.67,1.81,7.07,7.07,0,0,1-1,1.49,8.77,8.77,0,0,1-1.37,1.27,20.22,20.22,0,0,1-3.54,2c-.64.3-1.3.58-2,.86l-1,.42-1.06.46a20.92,20.92,0,0,0-3.88,2.19,13.54,13.54,0,0,0-2.07,1.83,7.1,7.1,0,0,1,.75-1.62c.4-.66.86-1.33,1.32-2s1-1.43,1.39-2.14S28,30.7,28.39,30s.75-1.36,1-2a9.26,9.26,0,0,0,.38-1.12l.55-.3a.51.51,0,0,0,.23-.61L30.1,24.5a.5.5,0,0,1,.16-.56l.75-.6a.51.51,0,0,1,.58,0l1.31.81a.51.51,0,0,0,.65-.1l.59-.67a.51.51,0,0,0,0-.66l-1-1.19a.51.51,0,0,1,0-.58l.5-.83a.52.52,0,0,1,.54-.23l1.5.31a.5.5,0,0,0,.57-.31l.33-.84a.51.51,0,0,0-.21-.62l-1.31-.79a.51.51,0,0,1-.24-.53l.19-.95a.5.5,0,0,1,.43-.4L37,15.5A.51.51,0,0,0,37.4,15l0-.9A.52.52,0,0,0,37,13.6l-1.51-.3a.5.5,0,0,1-.4-.42l-.15-1a.52.52,0,0,1,.26-.52l1.36-.73a.51.51,0,0,0,.23-.61l-.28-.85A.5.5,0,0,0,36,8.88l-1.52.24a.5.5,0,0,1-.52-.26L33.46,8a.48.48,0,0,1,.06-.57l1-1.15a.5.5,0,0,0,0-.65L34,4.93a.51.51,0,0,0-.64-.12L32,5.55a.5.5,0,0,1-.58-.07l-.72-.63a.51.51,0,0,1-.14-.57l.57-1.43a.5.5,0,0,0-.21-.61l-.77-.47a.49.49,0,0,0-.64.1L28.51,3a.51.51,0,0,1-.57.14l-.89-.35a.52.52,0,0,1-.33-.49L26.77.79a.52.52,0,0,0-.41-.51L25.48.1a.5.5,0,0,0-.57.32l-.56,1.43a.49.49,0,0,1-.48.32l-1,0a.48.48,0,0,1-.47-.35L22,.35A.49.49,0,0,0,21.4,0l-.89.13a.5.5,0,0,0-.43.49l0,1.54a.51.51,0,0,1-.35.47L18.79,3a.52.52,0,0,1-.56-.17l-.95-1.2a.5.5,0,0,0-.64-.13l-.79.43a.5.5,0,0,0-.24.61l.5,1.45A.52.52,0,0,1,16,4.5l-.76.6a.51.51,0,0,1-.58,0l-1.3-.81a.5.5,0,0,0-.65.1l-.6.67a.51.51,0,0,0,0,.66L13,7a.5.5,0,0,1,0,.58l-.5.83a.51.51,0,0,1-.53.23l-1.51-.31a.5.5,0,0,0-.57.31l-.33.84a.51.51,0,0,0,.21.62l1.32.79a.51.51,0,0,1,.23.53l-.19,1a.5.5,0,0,1-.42.4l-1.52.22a.5.5,0,0,0-.43.49l0,.9a.5.5,0,0,0,.41.51l1.5.3a.52.52,0,0,1,.41.42l.14,1A.5.5,0,0,1,11,17l-1.35.73a.5.5,0,0,0-.24.61l.29.85a.5.5,0,0,0,.56.34l1.51-.24a.53.53,0,0,1,.53.26l.46.85a.5.5,0,0,1-.07.57l-1,1.15a.5.5,0,0,0,0,.65l.56.71a.5.5,0,0,0,.64.12l1.34-.74a.5.5,0,0,1,.58.07l.72.63a.49.49,0,0,1,.14.57l-.57,1.43a.51.51,0,0,0,.21.62l.77.46a.51.51,0,0,0,.65-.1l1-1.15a.5.5,0,0,1,.56-.14l.9.35a.5.5,0,0,1,.32.49l0,1.53a.5.5,0,0,0,.4.51l.89.18A.51.51,0,0,0,21.3,28l.55-1.43a.5.5,0,0,1,.49-.32l1,0a.5.5,0,0,1,.47.35l.48,1.45a.5.5,0,0,0,.56.34l.89-.13a.52.52,0,0,0,.43-.49l0-1.54a.51.51,0,0,1,.34-.47l.75-.25a.64.64,0,0,1,0,.07A10.87,10.87,0,0,1,26.88,27a6.76,6.76,0,0,1-.8,1.62,12.51,12.51,0,0,1-1.39,1.6c-.55.53-1.14,1-1.79,1.57a23.45,23.45,0,0,0-2,1.82c-.48.5-1,1-1.45,1.61a13.66,13.66,0,0,0-2-1.65,23.67,23.67,0,0,0-3.85-2l-1-.41L12.14,31l-.48-.21c-.63-.29-1.26-.59-1.87-.91a19.78,19.78,0,0,1-3.4-2.14A9.1,9.1,0,0,1,4,25l-.19-.39-.09-.2h0s0,0,0,0v0l0-.06-.05-.13c-.14-.36-.24-.63-.34-.93a13.6,13.6,0,0,1-.47-1.88A33.8,33.8,0,0,1,2.58,14c0-1.11,0-2.16,0-3.08s-.14-1.72-.25-2.37a8.45,8.45,0,0,0-.38-1.49,4.17,4.17,0,0,0-.21-.51s0,.19-.06.54-.08.86-.11,1.5S1.46,10,1.34,10.9s-.29,1.87-.48,2.95-.41,2.28-.6,3.58A24.57,24.57,0,0,0,0,21.64a20.23,20.23,0,0,0,.24,2.29c.07.39.16.82.23,1.15l0,.13,0,.07v0s0,.05,0,.05v0l.1.31a6.5,6.5,0,0,0,.22.62,11.88,11.88,0,0,0,2.94,4.24,21.27,21.27,0,0,0,3.93,2.9c1.34.8,2.74,1.47,3.95,2.1S14,36.78,15,37.37a20.89,20.89,0,0,1,2.53,1.71l0,0a6.84,6.84,0,0,0,.14,2.83l.21.65a6.32,6.32,0,0,0,.26.63,8.47,8.47,0,0,0,.61,1.08,7.94,7.94,0,0,0,1.35,1.56,8.5,8.5,0,0,0,1.26.94c.18.11.36.2.51.28l.4.19.34.14.23-.16.09,0v0l.14-.09s0-.13,0-.36,0-.26,0-.42,0-.32,0-.49a5.74,5.74,0,0,1,.13-.65A6,6,0,0,1,24,43.36a9.47,9.47,0,0,1,1.66-1.85,21.65,21.65,0,0,1,2.6-1.85c1-.63,2.09-1.27,3.28-1.89l.92-.45,1-.47c.68-.33,1.38-.67,2.08-1A20.44,20.44,0,0,0,39.69,33a10.73,10.73,0,0,0,3-4.4c.07-.21.14-.42.2-.64l0-.16v0c0-.06,0,0,0-.05v-.1l.06-.27.06-.27,0-.31c0-.21.08-.42.1-.61a18.75,18.75,0,0,0,.19-2.33A27.25,27.25,0,0,0,43.16,19.57Zm-16,3.17a.15.15,0,0,1-.19,0l-.16-.27a.14.14,0,0,0-.18-.06l-.44.17a.15.15,0,0,0-.09.17l.06.31a.14.14,0,0,1-.1.17l-.44.13a.14.14,0,0,1-.17-.09l-.12-.29a.14.14,0,0,0-.16-.09l-.47.09a.16.16,0,0,0-.12.15v.32a.13.13,0,0,1-.12.14L24,23.6a.14.14,0,0,1-.16-.12l-.07-.31a.13.13,0,0,0-.14-.11h-.48a.14.14,0,0,0-.14.12l0,.32a.14.14,0,0,1-.15.12l-.47,0a.13.13,0,0,1-.13-.14v-.31a.14.14,0,0,0-.12-.14l-.48-.07a.14.14,0,0,0-.15.1l-.1.3a.14.14,0,0,1-.17.09l-.45-.11a.13.13,0,0,1-.11-.16l0-.31a.15.15,0,0,0-.09-.16l-.46-.15a.15.15,0,0,0-.17.07l-.15.28a.14.14,0,0,1-.18.06l-.43-.18a.15.15,0,0,1-.08-.18l.1-.3a.13.13,0,0,0-.07-.17l-.42-.23a.14.14,0,0,0-.18,0l-.19.25a.17.17,0,0,1-.2,0L17.73,22a.13.13,0,0,1-.05-.19l.15-.28a.14.14,0,0,0,0-.18L17.42,21a.15.15,0,0,0-.19,0l-.23.21a.15.15,0,0,1-.2,0l-.33-.32a.14.14,0,0,1,0-.19l.2-.25a.15.15,0,0,0,0-.19l-.31-.35a.14.14,0,0,0-.19,0l-.27.17a.14.14,0,0,1-.19,0l-.27-.37a.14.14,0,0,1,0-.2l.23-.21a.13.13,0,0,0,0-.18l-.25-.41a.13.13,0,0,0-.17,0l-.3.11a.14.14,0,0,1-.18-.07l-.21-.41a.15.15,0,0,1,.05-.19l.28-.16A.16.16,0,0,0,15,17.7l-.17-.44a.14.14,0,0,0-.16-.09l-.32.06a.13.13,0,0,1-.16-.1L14,16.69a.16.16,0,0,1,.09-.18l.3-.11a.15.15,0,0,0,.08-.17l-.09-.46a.16.16,0,0,0-.15-.12h-.32a.14.14,0,0,1-.14-.13l-.06-.46a.15.15,0,0,1,.12-.15l.31-.07a.12.12,0,0,0,.11-.14v-.48a.14.14,0,0,0-.12-.14L13.81,14a.14.14,0,0,1-.12-.15l0-.46a.13.13,0,0,1,.14-.13h.32a.14.14,0,0,0,.13-.13l.07-.47a.15.15,0,0,0-.09-.16l-.3-.1a.13.13,0,0,1-.1-.17l.11-.45a.15.15,0,0,1,.16-.11l.31.05a.14.14,0,0,0,.16-.1l.15-.45a.14.14,0,0,0-.07-.17l-.28-.15a.16.16,0,0,1-.06-.19l.18-.42a.15.15,0,0,1,.18-.08l.3.1a.16.16,0,0,0,.18-.07l.22-.42a.14.14,0,0,0,0-.18l-.25-.2a.13.13,0,0,1,0-.19l.25-.38a.13.13,0,0,1,.19,0l.28.15a.14.14,0,0,0,.18,0l.3-.37a.15.15,0,0,0,0-.19l-.21-.23a.15.15,0,0,1,0-.2l.32-.34a.15.15,0,0,1,.2,0l.24.2a.15.15,0,0,0,.19,0l.36-.31a.15.15,0,0,0,0-.19L17.27,7a.14.14,0,0,1,0-.19l.37-.28a.17.17,0,0,1,.2,0l.21.24a.14.14,0,0,0,.18,0l.41-.25a.16.16,0,0,0,.06-.18l-.12-.29a.14.14,0,0,1,.07-.18l.41-.21a.15.15,0,0,1,.19,0l.17.27a.13.13,0,0,0,.17.06l.45-.17a.15.15,0,0,0,.08-.17l-.06-.31a.16.16,0,0,1,.1-.17l.44-.13a.15.15,0,0,1,.18.09l.12.29a.13.13,0,0,0,.16.09l.47-.1a.14.14,0,0,0,.11-.14V5a.14.14,0,0,1,.13-.14l.46-.06a.15.15,0,0,1,.16.12l.06.31a.14.14,0,0,0,.15.11h.47a.14.14,0,0,0,.14-.12l.05-.32a.14.14,0,0,1,.15-.12l.46,0A.14.14,0,0,1,24,5v.31a.14.14,0,0,0,.12.14l.47.07a.14.14,0,0,0,.16-.1l.1-.3A.14.14,0,0,1,25.06,5l.45.11a.14.14,0,0,1,.11.16l-.05.31a.14.14,0,0,0,.1.16l.45.15a.14.14,0,0,0,.17-.07l.15-.28a.16.16,0,0,1,.19-.06l.42.18a.14.14,0,0,1,.08.18l-.1.3a.14.14,0,0,0,.07.17l.42.23a.14.14,0,0,0,.18,0l.2-.25a.15.15,0,0,1,.19,0l.39.26a.14.14,0,0,1,0,.19L28.37,7a.16.16,0,0,0,0,.18l.37.29a.15.15,0,0,0,.19,0l.24-.21a.14.14,0,0,1,.19,0l.34.32a.14.14,0,0,1,0,.19l-.2.25a.15.15,0,0,0,0,.19l.32.35a.13.13,0,0,0,.18,0l.27-.17a.14.14,0,0,1,.19,0l.28.37a.17.17,0,0,1,0,.2l-.24.21a.15.15,0,0,0,0,.18l.25.41a.14.14,0,0,0,.18.05l.29-.11a.15.15,0,0,1,.19.07l.2.41a.14.14,0,0,1-.05.19l-.27.16a.15.15,0,0,0-.06.18l.18.44a.13.13,0,0,0,.16.09l.31-.06a.15.15,0,0,1,.17.1l.13.44a.16.16,0,0,1-.09.18l-.29.11a.15.15,0,0,0-.09.17l.1.46a.14.14,0,0,0,.14.12h.32a.15.15,0,0,1,.15.13l0,.46a.13.13,0,0,1-.11.15l-.31.07a.14.14,0,0,0-.12.14v.48a.16.16,0,0,0,.13.14l.31.05a.14.14,0,0,1,.12.15l0,.46a.15.15,0,0,1-.14.13H32a.15.15,0,0,0-.14.13l-.07.47a.15.15,0,0,0,.1.16l.3.1a.13.13,0,0,1,.09.17l-.1.45a.15.15,0,0,1-.16.11l-.32,0a.15.15,0,0,0-.16.1l-.15.45a.15.15,0,0,0,.07.17l.28.15a.15.15,0,0,1,.06.19l-.18.42a.15.15,0,0,1-.18.08l-.3-.1a.14.14,0,0,0-.17.07l-.23.42a.14.14,0,0,0,0,.18l.25.2a.14.14,0,0,1,0,.19l-.26.38a.13.13,0,0,1-.18.05l-.28-.15a.15.15,0,0,0-.19,0l-.29.37a.17.17,0,0,0,0,.19l.21.23a.15.15,0,0,1,0,.2l-.32.34a.14.14,0,0,1-.19,0l-.25-.2a.14.14,0,0,0-.18,0L28.8,21a.17.17,0,0,0,0,.19l.17.27a.14.14,0,0,1,0,.19l-.37.28a.15.15,0,0,1-.19,0l-.21-.24a.15.15,0,0,0-.19,0l-.4.25a.14.14,0,0,0-.06.18l.11.29a.14.14,0,0,1-.06.18Z"/><path class="cls-2" d="M27.72,18a.1.1,0,0,1,.07.1v.3a.1.1,0,0,0,.08.1l.18,0a.1.1,0,0,0,.11-.06l.1-.29a.12.12,0,0,1,.1-.07h.19a.11.11,0,0,1,.1.07l.1.29a.11.11,0,0,0,.11.06l.18,0a.11.11,0,0,0,.09-.1v-.3a.11.11,0,0,1,.07-.1l.18-.07a.09.09,0,0,1,.11,0l.2.23a.09.09,0,0,0,.13,0l.15-.09a.09.09,0,0,0,.05-.12l-.11-.29a.11.11,0,0,1,0-.11l.15-.12a.1.1,0,0,1,.12,0l.26.15a.09.09,0,0,0,.13,0l.12-.14a.11.11,0,0,0,0-.13l-.2-.23a.1.1,0,0,1,0-.12l.09-.16a.1.1,0,0,1,.11-.05l.3.05a.09.09,0,0,0,.11-.06l.07-.17a.13.13,0,0,0-.05-.13l-.27-.15a.1.1,0,0,1,0-.1l0-.19s0-.08.08-.08l.3-.06a.1.1,0,0,0,.09-.1v-.18a.11.11,0,0,0-.09-.1l-.3-.05a.11.11,0,0,1-.08-.08l0-.19a.11.11,0,0,1,.05-.11l.26-.15a.1.1,0,0,0,.05-.12l-.06-.17a.1.1,0,0,0-.12-.06l-.3.05a.09.09,0,0,1-.1-.05l-.1-.17a.09.09,0,0,1,0-.11l.2-.24a.1.1,0,0,0,0-.13l-.12-.13a.11.11,0,0,0-.13,0L30.2,14a.11.11,0,0,1-.12,0l-.14-.13a.08.08,0,0,1,0-.11l.1-.29a.1.1,0,0,0,0-.12l-.16-.09a.13.13,0,0,0-.13,0l-.19.24a.11.11,0,0,1-.11,0l-.19-.07a.09.09,0,0,1-.06-.09V13a.11.11,0,0,0-.08-.1l-.18,0a.09.09,0,0,0-.11.06l-.11.29a.1.1,0,0,1-.09.07h-.2a.1.1,0,0,1-.09-.07l-.1-.29a.11.11,0,0,0-.12-.06l-.17,0a.11.11,0,0,0-.09.1v.31a.09.09,0,0,1-.06.09l-.19.07a.11.11,0,0,1-.11,0l-.19-.24a.09.09,0,0,0-.13,0l-.16.09a.09.09,0,0,0,0,.12l.1.29a.08.08,0,0,1,0,.11l-.14.13a.11.11,0,0,1-.12,0l-.22-.12.07,0,.2-.24a.18.18,0,0,0,0-.22L26.43,13a.18.18,0,0,1,0-.2l.17-.28a.16.16,0,0,1,.18-.09l.51.1a.18.18,0,0,0,.19-.11l.1-.29a.17.17,0,0,0-.07-.21L27,11.61a.16.16,0,0,1-.09-.18l.06-.32a.18.18,0,0,1,.14-.14l.51-.08a.18.18,0,0,0,.14-.17v-.31a.18.18,0,0,0-.14-.17l-.51-.09A.16.16,0,0,1,27,10L27,9.69A.17.17,0,0,1,27,9.51l.45-.25a.18.18,0,0,0,.07-.21l-.1-.29a.18.18,0,0,0-.19-.11l-.51.09a.16.16,0,0,1-.18-.08l-.17-.28a.18.18,0,0,1,0-.2l.34-.4a.18.18,0,0,0,0-.22l-.2-.23a.17.17,0,0,0-.22,0l-.45.26a.17.17,0,0,1-.19,0l-.25-.21a.16.16,0,0,1-.05-.19l.18-.49a.18.18,0,0,0-.08-.21l-.26-.15a.16.16,0,0,0-.22,0l-.33.4a.2.2,0,0,1-.19,0l-.31-.11a.16.16,0,0,1-.11-.17V6A.18.18,0,0,0,24,5.81l-.3,0a.18.18,0,0,0-.2.11l-.17.49a.18.18,0,0,1-.16.12h-.33a.17.17,0,0,1-.16-.12l-.18-.49a.18.18,0,0,0-.19-.11l-.3,0a.18.18,0,0,0-.14.17V6.5a.18.18,0,0,1-.11.17l-.31.11a.19.19,0,0,1-.19,0l-.33-.4a.16.16,0,0,0-.22,0l-.26.15a.17.17,0,0,0-.08.21l.18.49a.16.16,0,0,1-.05.19l-.25.21a.18.18,0,0,1-.2,0l-.45-.26a.16.16,0,0,0-.21,0l-.2.23a.18.18,0,0,0,0,.22l.34.4a.18.18,0,0,1,0,.2l-.16.28a.17.17,0,0,1-.18.08l-.51-.09a.18.18,0,0,0-.19.11l-.11.29a.18.18,0,0,0,.08.21l.45.25a.19.19,0,0,1,.09.18L18.9,10a.16.16,0,0,1-.14.14l-.51.09a.18.18,0,0,0-.15.17v.31a.18.18,0,0,0,.15.17l.51.08a.18.18,0,0,1,.14.14l.06.32a.17.17,0,0,1-.09.18l-.45.26a.18.18,0,0,0-.08.21l.11.29a.18.18,0,0,0,.19.11l.51-.1a.17.17,0,0,1,.18.09l.16.28a.18.18,0,0,1,0,.2l-.34.39a.18.18,0,0,0,0,.22l.2.24a.17.17,0,0,0,.21,0l.45-.27a.18.18,0,0,1,.2,0l.25.21a.16.16,0,0,1,.05.19l-.18.49a.17.17,0,0,0,.08.21l.26.15a.17.17,0,0,0,.22,0l.33-.4a.19.19,0,0,1,.19-.05l.31.11a.17.17,0,0,1,.11.16v.52a.16.16,0,0,0,.14.17l.3.06a.19.19,0,0,0,.19-.11l.18-.49a.17.17,0,0,1,.16-.12h.33a.18.18,0,0,1,.16.12l.17.49a.19.19,0,0,0,.2.11l.3-.06a.16.16,0,0,0,.14-.17v-.52a.16.16,0,0,1,.11-.16l.31-.11a.2.2,0,0,1,.19.05l.33.4a.17.17,0,0,0,.22,0l.26-.15a.18.18,0,0,0,.08-.21L25.41,14a.16.16,0,0,1,.05-.19l.25-.21a.17.17,0,0,1,.19,0l.44.26h0l-.12.14a.11.11,0,0,0,0,.13l.2.23a.11.11,0,0,1,0,.12l-.1.17a.12.12,0,0,1-.1.05l-.3-.06a.11.11,0,0,0-.12.07l-.06.17a.09.09,0,0,0,.05.12l.26.15a.09.09,0,0,1,.05.11l0,.19a.11.11,0,0,1-.09.08l-.3.05a.1.1,0,0,0-.08.1v.18a.1.1,0,0,0,.08.1L26,16a.11.11,0,0,1,.09.08l0,.19a.09.09,0,0,1-.05.11l-.27.15a.1.1,0,0,0,0,.12l.06.17a.1.1,0,0,0,.11.07l.31-.06a.1.1,0,0,1,.1.05l.1.17a.11.11,0,0,1,0,.11l-.08.1s0,0,0,0L26.2,17a.15.15,0,0,0-.17-.06l-.39.15a.14.14,0,0,1-.15,0l-.17-.2a.15.15,0,0,1,0-.16l.21-.36a.14.14,0,0,0,0-.17L25.3,16a.15.15,0,0,0-.18,0l-.31.27a.16.16,0,0,1-.16,0l-.23-.13a.14.14,0,0,1-.06-.15l.07-.41a.14.14,0,0,0-.09-.15l-.23-.08a.14.14,0,0,0-.17.06l-.2.36a.14.14,0,0,1-.14.07l-.26,0a.13.13,0,0,1-.11-.11l-.07-.41a.14.14,0,0,0-.14-.11h-.24a.13.13,0,0,0-.14.11l-.07.41a.13.13,0,0,1-.11.11l-.26,0a.14.14,0,0,1-.14-.07l-.21-.36a.13.13,0,0,0-.16-.06l-.23.08a.14.14,0,0,0-.09.16l.07.41a.13.13,0,0,1-.06.14l-.23.13a.14.14,0,0,1-.16,0L20.68,16a.15.15,0,0,0-.18,0l-.19.16a.14.14,0,0,0,0,.17l.21.36a.14.14,0,0,1,0,.16l-.17.2a.14.14,0,0,1-.15,0L19.77,17a.14.14,0,0,0-.17.06l-.12.21a.14.14,0,0,0,0,.17l.32.27a.12.12,0,0,1,0,.15l-.08.25a.15.15,0,0,1-.13.09h-.42a.14.14,0,0,0-.14.11l0,.24a.13.13,0,0,0,.09.15l.39.14a.13.13,0,0,1,.09.13v.26a.13.13,0,0,1-.09.13l-.39.14a.15.15,0,0,0-.09.16l.05.24a.14.14,0,0,0,.13.11h.42a.13.13,0,0,1,.13.09l.09.24a.16.16,0,0,1,0,.16l-.32.26a.14.14,0,0,0,0,.18l.12.21a.14.14,0,0,0,.17.06l.39-.15a.14.14,0,0,1,.15,0l.17.2a.14.14,0,0,1,0,.16l-.21.36a.15.15,0,0,0,0,.18l.19.15a.14.14,0,0,0,.18,0l.31-.27a.14.14,0,0,1,.16,0l.23.13a.13.13,0,0,1,.07.14l-.08.41a.13.13,0,0,0,.09.15l.23.09a.16.16,0,0,0,.17-.06l.2-.37a.13.13,0,0,1,.14-.06l.26,0a.14.14,0,0,1,.11.11l.08.41a.13.13,0,0,0,.13.12H23a.14.14,0,0,0,.13-.12l.07-.41a.13.13,0,0,1,.11-.11l.26-.05a.13.13,0,0,1,.14.07l.21.36a.13.13,0,0,0,.17.06l.22-.08a.14.14,0,0,0,.09-.16l-.07-.4a.14.14,0,0,1,.06-.15l.23-.13a.15.15,0,0,1,.16,0l.32.27a.12.12,0,0,0,.17,0l.19-.15a.15.15,0,0,0,0-.18l-.21-.36a.14.14,0,0,1,0-.16l.17-.2a.14.14,0,0,1,.15,0l.39.15a.15.15,0,0,0,.17-.06l.12-.22a.14.14,0,0,0,0-.17L26,20.43a.12.12,0,0,1,0-.15L26,20a.13.13,0,0,1,.13-.09h.41a.14.14,0,0,0,.14-.12l0-.24a.14.14,0,0,0-.09-.15l-.39-.14a.13.13,0,0,1-.09-.13v-.26a.13.13,0,0,1,.09-.13l.39-.14a.14.14,0,0,0,.09-.15l-.05-.25a.13.13,0,0,0-.13-.11h-.42A.13.13,0,0,1,26,18l-.09-.24a.13.13,0,0,1,0-.15l.24-.2s0,0,0,.06l.11.14a.11.11,0,0,0,.13,0l.27-.15a.08.08,0,0,1,.11,0l.15.12a.09.09,0,0,1,0,.11l-.11.29a.11.11,0,0,0,.05.12l.15.09a.09.09,0,0,0,.13,0l.2-.24a.11.11,0,0,1,.11,0ZM22.89,13.3a2.82,2.82,0,1,1,2.82-2.81A2.81,2.81,0,0,1,22.89,13.3Zm.36,7.94a2.28,2.28,0,1,1,1.84-2.65A2.28,2.28,0,0,1,23.25,21.24Zm3.64-5a1.62,1.62,0,1,1,2.07,1A1.61,1.61,0,0,1,26.89,16.26Z"/></g></g></svg>