<svg width="26" height="32" viewBox="0 0 26 32" fill="##00080b" xmlns="http://www.w3.org/2000/svg">
<path fill-rule="evenodd" clip-rule="evenodd" d="M7.42869 11.1429H4.47582C2.82296 11.1429 2.00582 13.1486 3.17582 14.3186L11.7001 22.8429C12.4244 23.5672 13.5944 23.5672 14.3187 22.8429L22.843 14.3186C24.013 13.1486 23.1773 11.1429 21.5244 11.1429H18.5716V1.85715C18.5716 0.835715 17.7358 0 16.7144 0H9.28583C8.2644 0 7.42869 0.835715 7.42869 1.85715V11.1429ZM24.1429 31.5715C25.1643 31.5715 26 30.7357 26 29.7143C26 28.6929 25.1643 27.8572 24.1429 27.8572H1.85711C0.835678 27.8572 -3.8147e-05 28.6929 -3.8147e-05 29.7143C-3.8147e-05 30.7357 0.835678 31.5715 1.85711 31.5715H24.1429Z" fill="##00080b"/>
</svg>
